# Blender v2.80 (sub 75) OBJ File: ''
# www.blender.org
o Cube
v 1.000000 1.000000 -1.000000
v 1.000000 -1.000000 -1.000000
v 1.000000 1.000000 1.000000
v 1.000000 -1.000000 1.000000
v -1.000000 1.000000 -1.000000
v -1.000000 -1.000000 -1.000000
v -1.000000 1.000000 1.000000
v -1.000000 -1.000000 1.000000
vn 1.0000 0.0000 0.0000
vn 0.0000 1.0000 0.0000
vn -1.0000 0.0000 0.0000
vn 0.0000 0.0000 1.0000
s off
f 6//1 7//1 8//1
f 8//2 2//2 6//2
f 4//3 1//3 2//3
f 2//4 5//4 6//4
f 6//1 5//1 7//1
f 8//2 4//2 2//2
f 4//3 3//3 1//3
f 2//4 1//4 5//4
o Cube.001
v 0.241871 -1.000000 0.618180
v 0.241871 -0.500000 0.618180
v 0.453774 -1.000000 0.165303
v 0.453774 -0.500000 0.165303
v 0.694748 -1.000000 0.830082
v 0.694748 -0.500000 0.830082
v 0.906651 -1.000000 0.377206
v 0.906651 -0.500000 0.377206
vn -0.9058 0.0000 -0.4238
vn 0.4238 0.0000 -0.9058
vn 0.9058 0.0000 0.4238
vn -0.4238 0.0000 0.9058
vn 0.0000 -1.0000 0.0000
vn 0.0000 1.0000 0.0000
s off
f 10//5 11//5 9//5
f 12//6 15//6 11//6
f 16//7 13//7 15//7
f 14//8 9//8 13//8
f 15//9 9//9 11//9
f 12//10 14//10 16//10
f 10//5 12//5 11//5
f 12//6 16//6 15//6
f 16//7 14//7 13//7
f 14//8 10//8 9//8
f 15//9 13//9 9//9
f 12//10 10//10 14//10
o Cube.002
v -0.590662 -1.000000 0.116854
v -0.590662 0.000000 0.116854
v -0.909881 -1.000000 -0.267982
v -0.909881 0.000000 -0.267982
v -0.205826 -1.000000 -0.202365
v -0.205826 0.000000 -0.202365
v -0.525045 -1.000000 -0.587201
v -0.525045 0.000000 -0.587201
vn -0.7697 0.0000 0.6384
vn -0.6384 0.0000 -0.7697
vn 0.7697 0.0000 -0.6384
vn 0.6384 0.0000 0.7697
vn 0.0000 -1.0000 0.0000
vn 0.0000 1.0000 0.0000
s off
f 18//11 19//11 17//11
f 20//12 23//12 19//12
f 24//13 21//13 23//13
f 22//14 17//14 21//14
f 23//15 17//15 19//15
f 20//16 22//16 24//16
f 18//11 20//11 19//11
f 20//12 24//12 23//12
f 24//13 22//13 21//13
f 22//14 18//14 17//14
f 23//15 21//15 17//15
f 20//16 18//16 22//16
