# Blender v2.80 (sub 75) OBJ File: ''
# www.blender.org
o Sphere_Sphere.003
v 0.000000 0.707107 -0.707107
v 0.000000 0.382683 -0.923880
v 0.000000 -0.382684 -0.923880
v 0.000000 -0.923880 -0.382683
v 0.146447 0.923880 -0.353553
v 0.270598 0.707107 -0.653281
v 0.353553 0.382683 -0.853553
v 0.382683 -0.000000 -0.923880
v 0.353553 -0.382684 -0.853553
v 0.270598 -0.707107 -0.653281
v 0.146447 -0.923880 -0.353553
v 0.270598 0.923880 -0.270598
v 0.500000 0.707107 -0.500000
v 0.653281 0.382683 -0.653281
v 0.707107 -0.000000 -0.707107
v 0.653281 -0.382684 -0.653281
v 0.500000 -0.707107 -0.500000
v 0.270598 -0.923880 -0.270598
v 0.353553 0.923880 -0.146447
v 0.653281 0.707107 -0.270598
v 0.853553 0.382683 -0.353553
v 0.923879 -0.000000 -0.382683
v 0.853553 -0.382684 -0.353553
v 0.653281 -0.707107 -0.270598
v 0.353553 -0.923880 -0.146447
v 0.382683 0.923880 -0.000000
v 0.707107 0.707107 -0.000000
v 0.923879 0.382683 -0.000000
v 1.000000 -0.000000 -0.000000
v 0.923879 -0.382684 -0.000000
v 0.707107 -0.707107 -0.000000
v 0.382683 -0.923880 -0.000000
v 0.353553 0.923880 0.146446
v 0.653281 0.707107 0.270598
v 0.853553 0.382683 0.353553
v 0.923879 -0.000000 0.382683
v 0.853553 -0.382684 0.353553
v 0.653281 -0.707107 0.270598
v 0.353553 -0.923880 0.146446
v 0.270598 0.923880 0.270598
v 0.500000 0.707107 0.500000
v 0.653281 0.382683 0.653281
v 0.707106 -0.000000 0.707107
v 0.653281 -0.382684 0.653281
v 0.500000 -0.707107 0.500000
v 0.270598 -0.923880 0.270598
v 0.146446 0.923880 0.353553
v 0.270598 0.707107 0.653281
v 0.353553 0.382683 0.853553
v 0.382683 -0.000000 0.923879
v 0.353553 -0.382684 0.853553
v 0.270598 -0.707107 0.653281
v 0.146446 -0.923880 0.353553
v -0.000000 0.923880 0.382683
v -0.000000 0.707107 0.707106
v -0.000000 0.382683 0.923879
v -0.000000 -0.000000 1.000000
v -0.000000 -0.382684 0.923879
v -0.000000 -0.707107 0.707106
v -0.000000 -0.923880 0.382683
v -0.146447 0.923880 0.353553
v -0.270598 0.707107 0.653281
v -0.353554 0.382683 0.853553
v -0.382684 -0.000000 0.923879
v -0.353554 -0.382684 0.853553
v -0.270598 -0.707107 0.653281
v -0.146447 -0.923880 0.353553
v -0.270598 0.923880 0.270598
v -0.500000 0.707107 0.499999
v -0.653282 0.382683 0.653281
v -0.707107 -0.000000 0.707106
v -0.653282 -0.382684 0.653281
v -0.500000 -0.707107 0.499999
v -0.270598 -0.923880 0.270598
v -0.353553 0.923880 0.146446
v -0.653281 0.707107 0.270597
v -0.853553 0.382683 0.353553
v -0.923879 -0.000000 0.382683
v -0.853553 -0.382684 0.353553
v -0.653281 -0.707107 0.270597
v -0.353553 -0.923880 0.146446
v -0.382683 0.923880 -0.000000
v -0.707106 0.707107 -0.000000
v -0.923879 0.382683 -0.000001
v -1.000000 -0.000000 -0.000001
v -0.923879 -0.382684 -0.000001
v -0.707106 -0.707107 -0.000000
v -0.382683 -0.923880 -0.000000
v -0.353553 0.923880 -0.146447
v -0.653281 0.707107 -0.270598
v -0.853553 0.382683 -0.353554
v -0.923879 -0.000000 -0.382684
v -0.853553 -0.382684 -0.353554
v -0.653281 -0.707107 -0.270598
v -0.353553 -0.923880 -0.146447
v -0.270598 0.923880 -0.270598
v -0.499999 0.707107 -0.500000
v -0.653281 0.382683 -0.653282
v -0.707106 -0.000000 -0.707107
v -0.653281 -0.382684 -0.653282
v -0.499999 -0.707107 -0.500000
v -0.270598 -0.923880 -0.270598
v -0.146446 0.923880 -0.353553
v -0.270598 0.707107 -0.653281
v -0.353553 0.382683 -0.853553
v -0.382683 -0.000000 -0.923880
v -0.353553 -0.382684 -0.853553
v -0.270598 -0.707107 -0.653281
v -0.146446 -0.923880 -0.353553
v -0.000000 1.000000 -0.000000
v 0.000000 0.923880 -0.382683
v 0.000001 -0.000000 -1.000000
v 0.000000 -0.707107 -0.707106
v 0.000000 -1.000000 -0.000000
vn 0.0000 0.9152 -0.4031
vn 0.2751 0.6952 -0.6641
vn 0.0000 0.6952 -0.7188
vn 0.0000 -0.6952 -0.7188
vn 0.1542 -0.9152 -0.3724
vn 0.0000 -0.9152 -0.4031
vn 0.0000 0.0000 -1.0000
vn 0.3548 -0.3743 -0.8567
vn 0.0000 -0.3743 -0.9273
vn 0.3548 0.3743 -0.8567
vn 0.0000 0.3743 -0.9273
vn 0.0000 1.0000 0.0000
vn 0.1542 0.9152 -0.3724
vn 0.0000 -1.0000 0.0000
vn 0.2751 -0.6952 -0.6641
vn 0.3827 0.0000 -0.9239
vn 0.6557 -0.3743 -0.6557
vn 0.6557 0.3743 -0.6557
vn 0.2850 0.9152 -0.2850
vn 0.2850 -0.9152 -0.2850
vn 0.5083 -0.6952 -0.5083
vn 0.7071 0.0000 -0.7071
vn 0.5083 0.6952 -0.5083
vn 0.3724 -0.9152 -0.1542
vn 0.6641 -0.6952 -0.2751
vn 0.8567 0.3743 -0.3548
vn 0.9239 0.0000 -0.3827
vn 0.3724 0.9152 -0.1542
vn 0.6641 0.6952 -0.2751
vn 0.8567 -0.3743 -0.3548
vn 1.0000 0.0000 0.0000
vn 0.4031 0.9152 0.0000
vn 0.7188 0.6952 0.0000
vn 0.7188 -0.6952 0.0000
vn 0.4031 -0.9152 0.0000
vn 0.9273 -0.3743 0.0000
vn 0.9273 0.3743 0.0000
vn 0.3724 -0.9152 0.1542
vn 0.8567 -0.3743 0.3548
vn 0.6641 0.6952 0.2751
vn 0.8567 0.3743 0.3548
vn 0.3724 0.9152 0.1542
vn 0.6641 -0.6952 0.2751
vn 0.9239 0.0000 0.3827
vn 0.6557 0.3743 0.6557
vn 0.2850 0.9152 0.2850
vn 0.2850 -0.9152 0.2850
vn 0.5083 -0.6952 0.5083
vn 0.7071 0.0000 0.7071
vn 0.5083 0.6952 0.5083
vn 0.6557 -0.3743 0.6557
vn 0.1542 -0.9152 0.3724
vn 0.2751 -0.6952 0.6641
vn 0.3548 0.3743 0.8567
vn 0.3827 0.0000 0.9239
vn 0.1542 0.9152 0.3724
vn 0.2751 0.6952 0.6641
vn 0.3548 -0.3743 0.8567
vn 0.0000 0.9152 0.4031
vn 0.0000 0.6952 0.7188
vn 0.0000 -0.6952 0.7188
vn 0.0000 -0.9152 0.4031
vn 0.0000 -0.3743 0.9273
vn 0.0000 0.3743 0.9273
vn 0.0000 0.0000 1.0000
vn -0.2751 -0.6952 0.6641
vn -0.1542 -0.9152 0.3724
vn -0.3548 -0.3743 0.8567
vn -0.3548 0.3743 0.8567
vn -0.1542 0.9152 0.3724
vn -0.3827 0.0000 0.9239
vn -0.2751 0.6952 0.6641
vn -0.2850 0.9152 0.2850
vn -0.2850 -0.9152 0.2850
vn -0.6557 -0.3743 0.6557
vn -0.5083 -0.6952 0.5083
vn -0.6557 0.3743 0.6557
vn -0.7071 0.0000 0.7071
vn -0.5083 0.6952 0.5083
vn -0.6641 -0.6952 0.2751
vn -0.9239 0.0000 0.3827
vn -0.3724 0.9152 0.1542
vn -0.6641 0.6952 0.2751
vn -0.3724 -0.9152 0.1542
vn -0.8567 -0.3743 0.3548
vn -0.8567 0.3743 0.3548
vn -0.7188 -0.6952 0.0000
vn -0.4031 -0.9152 0.0000
vn -0.9273 -0.3743 0.0000
vn -0.9273 0.3743 0.0000
vn -0.4031 0.9152 0.0000
vn -1.0000 0.0000 0.0000
vn -0.7188 0.6952 0.0000
vn -0.8567 -0.3743 -0.3548
vn -0.8567 0.3743 -0.3548
vn -0.3724 0.9152 -0.1542
vn -0.3724 -0.9152 -0.1542
vn -0.6641 -0.6952 -0.2751
vn -0.9239 0.0000 -0.3827
vn -0.6641 0.6952 -0.2751
vn -0.2850 -0.9152 -0.2850
vn -0.5083 -0.6952 -0.5083
vn -0.6557 0.3743 -0.6557
vn -0.7071 0.0000 -0.7071
vn -0.2850 0.9152 -0.2850
vn -0.5083 0.6952 -0.5083
vn -0.6557 -0.3743 -0.6557
vn -0.3827 0.0000 -0.9239
vn -0.1542 0.9152 -0.3724
vn -0.2751 0.6952 -0.6641
vn -0.1542 -0.9152 -0.3724
vn -0.3548 -0.3743 -0.8567
vn -0.3548 0.3743 -0.8567
vn -0.2751 -0.6952 -0.6641
s 1
f 111//1 6//2 1//3
f 113//4 11//5 4//6
f 112//7 9//8 3//9
f 1//3 7//10 2//11
f 111//1 110//12 5//13
f 114//14 4//6 11//5
f 113//4 9//8 10//15
f 112//7 7//10 8//16
f 8//16 16//17 9//8
f 6//2 14//18 7//10
f 5//13 110//12 12//19
f 114//14 11//5 18//20
f 9//8 17//21 10//15
f 7//10 15//22 8//16
f 5//13 13//23 6//2
f 10//15 18//20 11//5
f 114//14 18//20 25//24
f 16//17 24//25 17//21
f 15//22 21//26 22//27
f 13//23 19//28 20//29
f 18//20 24//25 25//24
f 15//22 23//30 16//17
f 13//23 21//26 14//18
f 12//19 110//12 19//28
f 21//26 29//31 22//27
f 20//29 26//32 27//33
f 25//24 31//34 32//35
f 22//27 30//36 23//30
f 20//29 28//37 21//26
f 19//28 110//12 26//32
f 114//14 25//24 32//35
f 23//30 31//34 24//25
f 31//34 39//38 32//35
f 29//31 37//39 30//36
f 28//37 34//40 35//41
f 26//32 110//12 33//42
f 114//14 32//35 39//38
f 30//36 38//43 31//34
f 28//37 36//44 29//31
f 27//33 33//42 34//40
f 34//40 42//45 35//41
f 33//42 110//12 40//46
f 114//14 39//38 46//47
f 37//39 45//48 38//43
f 35//41 43//49 36//44
f 34//40 40//46 41//50
f 38//43 46//47 39//38
f 36//44 44//51 37//39
f 114//14 46//47 53//52
f 44//51 52//53 45//48
f 43//49 49//54 50//55
f 41//50 47//56 48//57
f 46//47 52//53 53//52
f 43//49 51//58 44//51
f 41//50 49//54 42//45
f 40//46 110//12 47//56
f 48//57 54//59 55//60
f 53//52 59//61 60//62
f 50//55 58//63 51//58
f 48//57 56//64 49//54
f 47//56 110//12 54//59
f 114//14 53//52 60//62
f 51//58 59//61 52//53
f 49//54 57//65 50//55
f 60//62 66//66 67//67
f 57//65 65//68 58//63
f 55//60 63//69 56//64
f 54//59 110//12 61//70
f 114//14 60//62 67//67
f 58//63 66//66 59//61
f 56//64 64//71 57//65
f 55//60 61//70 62//72
f 61//70 110//12 68//73
f 114//14 67//67 74//74
f 66//66 72//75 73//76
f 64//71 70//77 71//78
f 61//70 69//79 62//72
f 66//66 74//74 67//67
f 64//71 72//75 65//68
f 62//72 70//77 63//69
f 72//75 80//80 73//76
f 70//77 78//81 71//78
f 69//79 75//82 76//83
f 73//76 81//84 74//74
f 71//78 79//85 72//75
f 70//77 76//83 77//86
f 68//73 110//12 75//82
f 114//14 74//74 81//84
f 81//84 87//87 88//88
f 78//81 86//89 79//85
f 76//83 84//90 77//86
f 75//82 110//12 82//91
f 114//14 81//84 88//88
f 80//80 86//89 87//87
f 77//86 85//92 78//81
f 76//83 82//91 83//93
f 85//92 93//94 86//89
f 83//93 91//95 84//90
f 82//91 110//12 89//96
f 114//14 88//88 95//97
f 87//87 93//94 94//98
f 85//92 91//95 92//99
f 83//93 89//96 90//100
f 87//87 95//97 88//88
f 114//14 95//97 102//101
f 93//94 101//102 94//98
f 92//99 98//103 99//104
f 90//100 96//105 97//106
f 94//98 102//101 95//97
f 92//99 100//107 93//94
f 90//100 98//103 91//95
f 89//96 110//12 96//105
f 98//103 106//108 99//104
f 97//106 103//109 104//110
f 101//102 109//111 102//101
f 99//104 107//112 100//107
f 97//106 105//113 98//103
f 96//105 110//12 103//109
f 114//14 102//101 109//111
f 100//107 108//114 101//102
f 108//114 4//6 109//111
f 106//108 3//9 107//112
f 105//113 1//3 2//11
f 103//109 110//12 111//1
f 114//14 109//111 4//6
f 108//114 3//9 113//4
f 106//108 2//11 112//7
f 103//109 1//3 104//110
f 111//1 5//13 6//2
f 113//4 10//15 11//5
f 112//7 8//16 9//8
f 1//3 6//2 7//10
f 113//4 3//9 9//8
f 112//7 2//11 7//10
f 8//16 15//22 16//17
f 6//2 13//23 14//18
f 9//8 16//17 17//21
f 7//10 14//18 15//22
f 5//13 12//19 13//23
f 10//15 17//21 18//20
f 16//17 23//30 24//25
f 15//22 14//18 21//26
f 13//23 12//19 19//28
f 18//20 17//21 24//25
f 15//22 22//27 23//30
f 13//23 20//29 21//26
f 21//26 28//37 29//31
f 20//29 19//28 26//32
f 25//24 24//25 31//34
f 22//27 29//31 30//36
f 20//29 27//33 28//37
f 23//30 30//36 31//34
f 31//34 38//43 39//38
f 29//31 36//44 37//39
f 28//37 27//33 34//40
f 30//36 37//39 38//43
f 28//37 35//41 36//44
f 27//33 26//32 33//42
f 34//40 41//50 42//45
f 37//39 44//51 45//48
f 35//41 42//45 43//49
f 34//40 33//42 40//46
f 38//43 45//48 46//47
f 36//44 43//49 44//51
f 44//51 51//58 52//53
f 43//49 42//45 49//54
f 41//50 40//46 47//56
f 46//47 45//48 52//53
f 43//49 50//55 51//58
f 41//50 48//57 49//54
f 48//57 47//56 54//59
f 53//52 52//53 59//61
f 50//55 57//65 58//63
f 48//57 55//60 56//64
f 51//58 58//63 59//61
f 49//54 56//64 57//65
f 60//62 59//61 66//66
f 57//65 64//71 65//68
f 55//60 62//72 63//69
f 58//63 65//68 66//66
f 56//64 63//69 64//71
f 55//60 54//59 61//70
f 66//66 65//68 72//75
f 64//71 63//69 70//77
f 61//70 68//73 69//79
f 66//66 73//76 74//74
f 64//71 71//78 72//75
f 62//72 69//79 70//77
f 72//75 79//85 80//80
f 70//77 77//86 78//81
f 69//79 68//73 75//82
f 73//76 80//80 81//84
f 71//78 78//81 79//85
f 70//77 69//79 76//83
f 81//84 80//80 87//87
f 78//81 85//92 86//89
f 76//83 83//93 84//90
f 80//80 79//85 86//89
f 77//86 84//90 85//92
f 76//83 75//82 82//91
f 85//92 92//99 93//94
f 83//93 90//100 91//95
f 87//87 86//89 93//94
f 85//92 84//90 91//95
f 83//93 82//91 89//96
f 87//87 94//98 95//97
f 93//94 100//107 101//102
f 92//99 91//95 98//103
f 90//100 89//96 96//105
f 94//98 101//102 102//101
f 92//99 99//104 100//107
f 90//100 97//106 98//103
f 98//103 105//113 106//108
f 97//106 96//105 103//109
f 101//102 108//114 109//111
f 99//104 106//108 107//112
f 97//106 104//110 105//113
f 100//107 107//112 108//114
f 108//114 113//4 4//6
f 106//108 112//7 3//9
f 105//113 104//110 1//3
f 108//114 107//112 3//9
f 106//108 105//113 2//11
f 103//109 111//1 1//3
